<svg id="Ebene_1" data-name="Ebene 1" xmlns="http://www.w3.org/2000/svg" viewBox="0 0 2285.99 3095.17"><defs><style>.cls-1,.cls-2{fill:none;stroke:#1d1d1b;stroke-miterlimit:10;}.cls-1{stroke-width:52px;}.cls-2{stroke-width:39.53px;}.cls-3{font-size:418px;font-family:Abolition-Regular, Abolition;}</style></defs><circle class="cls-1" cx="1140.79" cy="1705.81" r="846.7"/><circle class="cls-2" cx="1140.79" cy="1705.81" r="643.71"/><line class="cls-1" x1="319.06" y1="1707.14" x2="480.2" y2="1707.14"/><line class="cls-1" x1="1801.64" y1="1707.14" x2="1962.79" y2="1707.14"/><line class="cls-1" x1="1275.42" y1="1470" x2="1680.45" y2="2056.83"/><line class="cls-1" x1="1008.41" y1="1470.5" x2="1739.73" y2="1469.48"/><line class="cls-1" x1="874.49" y1="1686.99" x2="1243.2" y2="1076.68"/><line class="cls-1" x1="991.9" y1="1921.07" x2="674.03" y2="1277.47"/><line class="cls-1" x1="1275.42" y1="1933.37" x2="541.29" y2="1940.72"/><line class="cls-1" x1="1415.31" y1="1686.99" x2="1080.3" y2="2339.16"/><polygon class="cls-1" points="1207.1 1580.94 1074.75 1580.94 1008.57 1695.56 1074.75 1810.18 1207.1 1810.18 1273.28 1695.56 1207.1 1580.94"/><text class="cls-3" transform="translate(607.84 990.68) rotate(-33.75)">L</text><text class="cls-3" transform="translate(785.18 886.64) rotate(-21.82)">I</text><text class="cls-3" transform="translate(937.36 832.75) rotate(-8.81)">G</text><text class="cls-3" transform="translate(1167.16 808.95) rotate(6.65)">H</text><text class="cls-3" transform="translate(1405.04 850.39) rotate(21.53)">T</text><text class="cls-3" transform="matrix(0.81, 0.59, -0.59, 0.81, 1600.1, 938.8)">S</text><text class="cls-3" transform="matrix(0.83, 0.56, -0.56, 0.83, 432.74, 2688.26)">L</text><text class="cls-3" transform="translate(652.6 2818.37) rotate(21.93)">E</text><text class="cls-3" transform="translate(907.51 2904.92) rotate(8.76)">N</text><text class="cls-3" transform="translate(1213.71 2931.15) rotate(-6.37)">S</text><text class="cls-3" transform="translate(1499.17 2875.54) rotate(-22.59)">E</text><text class="cls-3" transform="translate(1740.04 2756.09) rotate(-36.48)">S</text></svg>