<svg xmlns="http://www.w3.org/2000/svg" viewBox="0 0 7943.08 4447.77"><defs><style>.cls-1{fill:#211936;}.cls-2{fill:#29204f;}.cls-3{fill:#382661;}.cls-4{fill:#832b69;}.cls-5{fill:#29204e;}.cls-6{fill:#e83b69;}.cls-7{fill:#ea8b6b;}.cls-15,.cls-25,.cls-35,.cls-36,.cls-8{fill:none;stroke-miterlimit:10;}.cls-8{stroke:#29204f;}.cls-35,.cls-8{stroke-width:37px;}.cls-9{fill:#802b65;}.cls-10{fill:#e73b69;}.cls-11{fill:#812b69;}.cls-12{fill:#29214f;}.cls-13{fill:#3a2766;}.cls-14{fill:#372664;}.cls-15{stroke:#f49c6e;stroke-width:23px;}.cls-16{fill:#822b68;}.cls-17{fill:#f3936b;}.cls-18{fill:#e33a6c;}.cls-19{fill:#36265f;}.cls-20{fill:#392665;}.cls-21{fill:#822d65;}.cls-22{fill:#2b204f;}.cls-23{fill:#e53b68;}.cls-24{fill:#f49b6f;}.cls-25{stroke:#e53b68;stroke-width:21px;}.cls-26{fill:#f49c6f;}.cls-27{fill:#fff;}.cls-28{fill:#e53c68;}.cls-29{fill:#e48d69;}.cls-30{fill:#221a38;}.cls-31{fill:#dcd8e0;}.cls-32{fill:#e73d68;}.cls-33{fill:#e58a6a;}.cls-34{fill:#f49c6e;}.cls-35{stroke:#29204e;}.cls-36{stroke:#e73d67;stroke-width:31px;}</style></defs><g id="Ebene_2" data-name="Ebene 2"><rect class="cls-1" width="7943.08" height="4447.77"/><circle class="cls-2" cx="4142.02" cy="1969.16" r="711.45"/><circle class="cls-3" cx="4114.9" cy="1997.92" r="577.86"/><circle class="cls-4" cx="4148.55" cy="1975.85" r="443.88"/></g><g id="Ebene_1" data-name="Ebene 1"><circle class="cls-5" cx="4148.55" cy="1338.75" r="19.48"/><path class="cls-6" d="M4210.35,887.09s31.66,47.69,61.7,49,151.83-82.51,151.83-82.51,15.71-18.73,15.71-25.76-41.5-232.2-41.5-232.2L4315.9,534H4023.61L3789.79,796.2,3866.92,918l233.82-4.87,49.58-34.1Z" transform="translate(0 -3.98)"/><circle class="cls-6" cx="4148.55" cy="1975.85" r="344.33"/><path class="cls-7" d="M3672.39,1064.17l231-176.74s-64.94-23-66.2-58.09c0,0,12.78-10,16.78-12.53,0,0,22.7,51.6,49.42,52.1s129.9,0,129.9,0,36.44-15.69,38.57-59.44l18-1.77s-.44,35.66-26.48,62.71h101.18s36.06-27.74,38.57-62.71h16s-3.5,41.17-26,63.21h94.67s38.8-18.22,42.44-63.21H4348s1.29,54.49-52.81,79.39H3921.56s-1,76.32-84.41,145c0,0,66.09,43,101.29,43h459.65v19.22h-460s-87.65-16-115.7-52.6c0,0,4.56,30.62-150,38.86Z" transform="translate(0 -3.98)"/><path class="cls-6" d="M3565.75,1122.78l26.81,7.56,79.83-49.77v-16.4s97.71,5.59,167.84-61.35c0,0,40.8-20.4,63.12-115.39,0,0-52.83-18.55-61.66-47.07l-103.22-36L3460.4,949.45l51.15,93Z" transform="translate(0 -3.98)"/><rect class="cls-8" x="3763.26" y="747.15" width="774.12" height="441.88" rx="91.3"/><path class="cls-9" d="M3565.75,1122.78l99.61-58.55s-100,.93-157.86-93.41c0,0,191.3-118.59,274.17-126.76h0s33.64,3.56,64-68.41c0,0,18.22-63.4,80.43-71.25h11.38v95.73s2.24,28.72,41.09,27.74,70.84-.49,70.84-.49,19.67,3.93,23.11-22.14,0-234.62,0-234.62h17.22V807.7s4.92,20.66,26.07,21.15,61.48-.49,61.48-.49,23.12,4.92,23.61-27.05,0-228.73,0-228.73h20.17v224.3s.49,29.51,21.15,30,64.44,0,64.44,0,24.1-3.45,23.85-23.86,0-232.41,0-232.41H4348V842.86h69.54s22-3.49,22-22V548.91c-20.37-30-37.76-37.93-51.24-37.95-21,0-32.4,19.09-46.67,13.52-14.52-5.66-7.25-27.23-24.86-43.61s-50.9-19.32-72.83-7.85c-14,7.33-17.19,17.35-27.91,16.57-11.46-.83-14.56-12.76-29.66-23.55-12.82-9.16-29-13.73-41.87-13.52-37.4.63-67.13,42.2-78.07,34-1.1-.83-1.64-1.88-7.41-7.41-5.24-5-9.33-8.5-9.6-8.73-11.31-9.55-43.61-1.74-43.61-1.74-15.77,3.81-39.49,11.37-67.16,27.48L3584.56,644s-170.53,77.2-217.19,113.4-109.47,77.19-109.47,77.19l-36.52,22.95,82.24,166.68,142.84,80.23Z" transform="translate(0 -3.98)"/><polygon class="cls-9" points="3668.02 1211.16 3592.99 1143.5 3485.39 1110.24 2854.9 1999.41 3130.45 2536.02 3521.9 2898.59 3991.93 3139.34 4307.2 3105.09 4497.69 2843.48 4006.43 2843.48 3537.05 2588.23 3289.99 2083.53 3363.7 1635.37 3668.02 1211.16"/><path class="cls-10" d="M4436.69,2874.67l52.71-60.26h-40.64a1940.27,1940.27,0,0,1-228,0c-156.1-9.19-293.06-17.24-437.56-85.74C3634.36,2658.12,3544,2551.85,3512,2515.29a875.85,875.85,0,0,1-86.37-117.49,784.06,784.06,0,0,1-62.87-129.55c-41.79-112.09-48-211.67-47.63-271.18.39-57.71.8-118.74,27.94-194.33,5.69-15.82,32.81-88.74,98.44-163.84,50.87-58.22,101.13-90.57,134.63-111.78a700.7,700.7,0,0,1,168.3-77.47l-22.31-107.52-5.5-54.4-49.3-78.52a913.14,913.14,0,0,0-170.09,139.66c-59.95,62.8-173.62,200-225.78,408.83-42.63,170.7-24.55,310.81-15.25,366.12,8.3,49.32,74.33,405.84,406.6,615.36,163.93,103.38,326.39,129.18,426,135.49" transform="translate(0 -3.98)"/><path class="cls-11" d="M3710.87,1293.66a811.73,811.73,0,0,0-147.31,101.64c-134.68,117-193.63,247.7-199.86,244-5.06-3,30.06-91.41,96.74-181.68C3534.78,1357,3619.23,1293.5,3679,1255.85l18.89-4.92Z" transform="translate(0 -3.98)"/><path class="cls-12" d="M4342.49,3001.13c-101.17,14.46-414.09,45.43-719.82-137.12-227.73-136-339.24-321.34-367.69-371.17-24.77-43.4-124.06-224.86-132.44-482.71-7.07-217.75,54.32-378.07,69.71-416.48,98.81-246.61,272.92-388.15,357.23-447.85l-123-35.83-75.88-41.83-62.93-66.26-28.88-69.59-46.27-4.44-221.44,225.49L2783,1519.13l-76.35,354,52,453,119.13,301.18,198.84,292.8L3437,3218l379.59,142.62,360.32,44,50.77-10.45Z" transform="translate(0 -3.98)"/><path class="cls-13" d="M3226.13,853.62c-94.48,77.19-407.38,352.2-506.08,831.68-115.28,559.94,146.22,987.44,203.5,1076.41,26,40.42,332.45,500.54,916.63,635.75a1446.33,1446.33,0,0,0,331.33,37l11.52-63.15c-9.08.66-23.8,1.61-41.89,2.23-427.52,14.67-752.31-222.69-833.77-283.95-161.3-121.28-254.4-244.16-282.27-282.26-112.92-154.36-162.83-294.49-190.82-375-27.69-79.66-73.79-215.6-82.16-400.2-2.07-45.53-7.47-218.29,51.68-425.38,98.9-346.27,316.33-571.68,431.95-675.56Z" transform="translate(0 -3.98)"/><path class="cls-14" d="M4210.85,3274.29c-51.15,2.66-118.5,4.27-197.52.88-51.5-2.21-127.57-5.71-216.93-21.16-149.61-25.87-241.84-68.88-242.5-67-1,2.71,191.65,100.83,454.14,128.75a1381.47,1381.47,0,0,0,188.7,7.05Z" transform="translate(0 -3.98)"/><path class="cls-15" d="M3226.13,853.62c-.73,15.87,10.65,38.78,14.95,64.09,2.72,16,21.73,37.89,43,75.51,13.54,24,65.39,74.3,131.23,100.42,41.56,16.48,61,16.95,126,34.5,34.45,9.32,55.74,18.27,95.93,48,16.69,12.33,61.94,42.25,82.19,102.83,10.92,32.65.65,31.78,10.25,79a397.15,397.15,0,0,0,36,102.31l-41,6c-4,1.18-9.78,2.94-16.72,5.23-42.65,14.08-235.83,83.72-332.24,272.69-61.58,120.7-54.71,233.33-50.15,308.21,9.9,162.33,72.42,277.13,100.3,327,38.3,68.52,131.6,212.2,308.21,312.39,159.48,90.47,311.08,102.48,402.24,109.7a1114.59,1114.59,0,0,0,116,3.14l267,.35" transform="translate(0 -3.98)"/><path class="cls-16" d="M4146.4,887.09v67.85l-103.6,50.67-170.35,46.46-35.3-20s84.41-70.6,84.41-145Z" transform="translate(0 -3.98)"/><path class="cls-6" d="M3872.45,1052.07s82.88-114.34,161.91-115.87,134.29,21.48,172.66,57.93c0,0,21.48-24.55,81.34-22.06s108.2,54.68,109.73,103H3938.44S3896.24,1067.42,3872.45,1052.07Z" transform="translate(0 -3.98)"/><polygon class="cls-17" points="3542.43 4435.53 3575.58 4435.53 4153.64 3568.03 4153.64 3521.14 3542.43 4435.53"/><polygon class="cls-18" points="4153.64 3568.03 4150.78 3731.38 3677.53 4435.53 3575.58 4435.53 4153.64 3568.03"/><path class="cls-19" d="M4150.78,3735.36s8,196,29.25,259.2l-290.18,445H3677.53Z" transform="translate(0 -3.98)"/><path class="cls-2" d="M3889.85,4439.51h440.87l26.92-36.71S4199.79,4116,4180,3994.56Z" transform="translate(0 -3.98)"/><path class="cls-6" d="M4176.94,3404.67a1322.65,1322.65,0,0,1,67.22-210.09c24-57.79,48.38-115.51,96.07-182.59,29.16-41,55.85-69.78,79.35-95.12,12.29-13.26,58.53-62.5,129.53-120.45,38.4-31.34,57.6-47,82.67-61.56,64.47-37.42,114.83-41.71,157-52.33,197.91-49.85,319.77-265.59,351.92-322.26a724.38,724.38,0,0,0,37.7-76.7l77.05,68.94a981.83,981.83,0,0,1-139.55,250.77c-71.41,92.87-140.93,148.42-156.34,160.54-57.37,45.11-104.78,69.86-197.26,117.51-158.54,81.7-154.81,62.17-225.88,116-107.81,81.64-195.07,160.89-234.47,206.57-67.88,78.69-113.33,211.6-137.76,272.66Z" transform="translate(0 -3.98)"/><path class="cls-20" d="M4517,4165.78a816.18,816.18,0,0,1-71.48-133.1c-58.09-137.43-69.51-255-71.75-322.65-6.51-197,39.18-351,81.11-452,0,0,139.49-148.74,237.14-162.63-8.13,1.15-11,16.74-18.1,29-49.91,85.37-65.44,162.52-71.53,194.22-34.73,180.49,21.55,331.6,30.73,355.35a638.35,638.35,0,0,0,96.94,168.36Z" transform="translate(0 -3.98)"/><path class="cls-2" d="M4680.36,3097.69c-20.52,33.32-41.56,76-60.93,133-13.72,40.37-26.72,102.78-31.24,177.17-7.71,126.81,27,223.19,39.37,258.49,27.44,78.33,69.08,139.12,101.84,181.85l28-38c-3.07-18.15-20.71-29.67-20.71-29.67-50.09-115.28-89.24-204.5-95.4-265.82-10.32-102.89,11.58-211.27,11.58-211.27,39.74-117.1,78.57-199.52,113.16-245.05l-8.16-14.15-60.44,41.41Z" transform="translate(0 -3.98)"/><path class="cls-14" d="M4757.35,3810.22a622.9,622.9,0,0,1-57.38-93.49C4649.78,3616,4639.64,3527,4637,3497.36c-12.44-140.91,29.65-246.25,55.53-311,18.92-47.34,35.43-87.59,73.13-129.59,45.1-50.26,75.09-52.39,142.54-98.11L5093.72,2768s98.07-148.89,110.64-171c42.58-74.83,81.07-138.4,100-193.7l37.7,38.47c-4.56,12.9-11.31,31.14-20.31,52.65-11.7,27.94-49.7,115.17-137.24,234.1-57.61,78.27-124.94,169.74-235.57,256.9-37,29.18-65.17,47-102,89-61.71,70.31-89,141.21-98.31,167.87-45.52,130.34-24.42,243.76-13.92,287.51a518.24,518.24,0,0,0,84.4,182.71Z" transform="translate(0 -3.98)"/><path class="cls-21" d="M5255.16,2352.5c-33.8,85.38-100,218.79-228,342.67-23.24,22.5-94.34,88.17-201.27,149.33-99.72,57-121.45,47.59-215,98.11-23.43,12.66-142.39,78.24-259.71,206.33-52.94,57.79-131.44,145.13-171,268.36-13.06,40.7-21.67,84.7-22.86,90.84-3.64,18.84-16.16,87-15.13,184.17,1.85,176.64,42.68,334.8,47.15,350,45,152.84,111.79,276.85,168.23,360.51l25.83-36c-4.46-5.36-11.22-13.73-18.95-24.32-28.82-39.52-46.09-75.77-61.25-111.94-33.47-79.86-61.25-146.17-79.2-242.89-8.09-43.6-20.34-111.85-15.84-198.54,9.88-190.65,93.28-327.41,125.67-379.13,69.91-111.65,149-179.94,179.53-204.88,98.39-80.3,121.37-60,282-165.8,69.94-46.05,149.17-98.94,233.39-189,50.65-54.2,83.34-100.71,117.22-148.91,83.64-119,121.11-204.11,130.95-227,12.76-29.74,22-54.9,27.92-72.11Z" transform="translate(0 -3.98)"/><path class="cls-20" d="M4309.06,3455.57a1118.49,1118.49,0,0,0,150.65,783l-77,130.79c-8.39-13.63-23.76-33-38.54-57.21-48-78.62-122.79-236.29-134.75-431.24-12.42-202.18,40.19-313.79,83.06-403Z" transform="translate(0 -3.98)"/><path class="cls-12" d="M4454.89,3258.08c-25,23.23-51.6,55.61-79.17,91.09,0,0-56.84,75.13-83.05,132.69-29.94,57.06-29,211.18,30.31,431.89,54.27,202.08,69.71,211.38,134.81,328.12l56.11-77.49c-7.45-12.33-17.6-29.82-28.71-51.26-15.14-29.24-71.29-141.62-95.34-304.48-9.35-63.34-26.68-188.6,7.18-345.5a897.84,897.84,0,0,1,60.48-182.48Z" transform="translate(0 -3.98)"/><path class="cls-22" d="M4936.39,3410c63.89-100.67,117.94-180.81,154.12-233.51,132.16-192.52,195.75-266.27,281.76-415.64,49.22-85.48,83.85-157.62,104.3-202.37l-164-146.85-196.84,407.23a181.93,181.93,0,0,1-5.25,24.68c-18.36,64-67.11,99.64-88.86,118.43-71.31,61.63-94.93,152.21-107.52,200.49-10.62,40.74-24.71,124.52,13.75,237.66Z" transform="translate(0 -3.98)"/><path class="cls-4" d="M4732.37,1857.69v18.12s3.12,17.9,18.7,17.54,198.9,0,198.9,0l54-24.57-256.51-4.69Z" transform="translate(0 -3.98)"/><path class="cls-13" d="M4993.81,1588.58a195.34,195.34,0,0,0,44.61-56.74c6.8-13.09,21.89-43,21.1-81.26-.66-32-12.16-55.59-17.65-67.07-67.17-140.6-63.76-165.33-109.78-261.39-45.64-95.29-115.3-157.79-113.45-170.94,3.79-26.89,10.23-42.26-9.36-66.1-13.33-16.22-34.43-20-39.87-21-4.69-.83-34.51-5.65-58.53,13.88-22.21,18.06-31,50-22,80.49l91.51,156.76,96.85,182.63,76.88,204.19Z" transform="translate(0 -3.98)"/><path class="cls-23" d="M4732.24,1842.22q.06,7.74.13,15.47s.15,12.68,16.25,12.81,272.36-1.26,272.36-1.26l121.53,66.25-177.34-292Z" transform="translate(0 -3.98)"/><polygon class="cls-23" points="5072.61 1453.4 5049.51 1464.83 5044.36 1552.92 5084.41 1551.05 5324.77 1495.62 5313.6 1475.34 5072.61 1453.4"/><polygon class="cls-16" points="5225.66 1307.42 5072.61 1453.4 5320.57 1475.97 5240.45 1319.59 5225.66 1307.42"/><polygon class="cls-16" points="5241.28 1924.34 5404.53 1759.79 5419.68 1943.49 5422.21 2017.66 5277.97 1967.79 5241.28 1924.34"/><path class="cls-20" d="M5379.43,1655.09l-270.69-61.38,11.85,128.52,19.74,55.64s67,197,264.42,234.43l11.71.81-4.41,171.54-25.59,78.47-186-259-89-176.7-49.3-184,22.21-88.45H5346l24.25,41.55Z" transform="translate(0 -3.98)"/><polygon class="cls-24" points="5154.13 1769.38 5150.78 1765.76 5178.87 1641.17 5390.21 1696.91 5396.67 1708.19 5154.13 1769.38"/><polygon class="cls-11" points="5185.83 1607.21 5379.43 1651.11 5390.21 1696.91 5388.82 1696.54 5178.87 1641.17 5185.83 1607.21"/><path class="cls-2" d="M4773,852.72c2.42-13.78,105-7.2,187.09,0a292.94,292.94,0,0,1,92.64,15.14c79.05,26.73,125.15,81.79,184.71,160.53,113.69,150.3,170.53,225.46,212.84,312.26,15.64,32.1,70.45,147.89,106,310.79,6.31,28.85,35,164.49,33.14,346.14-1.61,156-25,271.39-31.67,302.69a1443.29,1443.29,0,0,1-56.51,196.51l-3.67,6.28c-38.49-36.33-88.2-94.47-110.14-176-35.8-133.08,35.51-205.18,39.62-409.68,2.32-115.54-18.22-203.53-30-252.62-9.44-39.26-48-189.92-158.57-358.61-49.05-74.85-91.48-121.5-159.42-196.22-121.07-133.16-187.39-175.2-269.56-235.46C4799.26,866.9,4771.77,859.85,4773,852.72Z" transform="translate(0 -3.98)"/><path class="cls-25" d="M4983.56,1598.07c-5.24-18-12.94-43.88-22.73-74.87-23-72.88-42.62-135-72.48-206-38.63-91.93-77.48-158.56-102.79-201.63,0,0-32.87-40.89-96.21-147.61a64.17,64.17,0,0,1-5.18-10.94c-6.3-17.37-6.21-40.55,4-59.54,14.38-26.74,44.67-37.48,67.05-38,26.74-.59,43.11,13.43,87.22,46.12,75.09,55.62,57.85,37.37,100.1,71.08a1267.48,1267.48,0,0,1,136.37,126.22c17.88,19.18,66,72,119,148.7a1364.86,1364.86,0,0,1,127.67,229.21c24.28,55.63,51.92,119.88,71.09,209.64,12.19,57.11,15.22,97.68,21,175.54,6.93,92.83,12,160.42,3.63,248.07A1039.68,1039.68,0,0,1,5379.22,2323" transform="translate(0 -3.98)"/><path class="cls-26" d="M4971,2250.28,5013.7,2078l565.63,555.61-436.82-698.11s-65.83-79.27-154.08-65l-60.07,32.79-68.43,110.3,42.65,202.88Z" transform="translate(0 -3.98)"/><path class="cls-27" d="M5014.23,2132.14l573,536.69,17.34-2.63-616.14-795.7s-55.41,55.67-50.5,133.45,50.5,105.61,50.5,105.61-6.29,70.41-28.39,138.36c0,0-95-71.23-86.78-189.94s98.06-176.73,98.06-176.73-163.18,25.2-163.18,173.35,143.33,206.94,143.33,206.94-91.67,211.32-202.85,328.7l191.58-147.52,77.18-222.57Z" transform="translate(0 -3.98)"/><path class="cls-26" d="M4331.25,3024.92c1.93,1.51,62.22-80.26,130.72-147.44,44.87-44,85.95-82.64,143.87-125.1,80.93-59.33,169.16-70.72,202.81-75.49,36.27-5.15,122.43-52.6,193.6-126.34a841.77,841.77,0,0,0,109.05-140.7,1016.72,1016.72,0,0,0,67.08-126.28L5136.82,2245l-22.27-17.17-100.32-95.73c-.93,9-2.55,22.59-5.35,39-5.82,34-30.57,161-130.78,289.09-35.18,45-66.39,73.16-120.07,121.6-54.68,49.35-66.13,52.29-136.89,112.42-51.58,43.83-100.62,85.5-154.49,144.55C4394.78,2917.57,4329,3023.16,4331.25,3024.92Z" transform="translate(0 -3.98)"/><path class="cls-28" d="M4808.65,2676.89s-21.53,3.34-24-3.07c-1.62-4.24,6.12-10.92,9.68-13.92,24.26-20.42,36.4-30.63,90.49-62.64,15.63-9.25,33-27.36,67.75-63.58,31.51-32.84,73.23-76.32,114.16-142A734.66,734.66,0,0,0,5136.82,2245l-22.27-17.17c-2.38,8.06-5.9,19.37-10.68,32.71-11,30.76-44.77,117.26-122.51,206.05-34.61,39.53-75.35,71.67-156.85,136C4782.24,2636,4746,2662.52,4720.1,2681l-74.79,46.7,134.19-17.47Z" transform="translate(0 -3.98)"/><polygon class="cls-27" points="5182.4 2285.67 5013.31 2136.46 5013.31 2121.09 5186.35 2271.38 5182.4 2285.67"/><rect class="cls-29" x="4876.54" y="1483.17" width="26.85" height="433.04" rx="4.8" transform="translate(2634.1 -2963.88) rotate(45)"/><path class="cls-16" d="M5374.43,2306.13l12-43-228-364.93s-73.13-153.22-74.07-198.5,0-144.66,0-144.66-15.95-14.84-40.05,9.26l-79.19,79.19,238.41,392.9Z" transform="translate(0 -3.98)"/><path class="cls-29" d="M5025.37,1545.3v-62.11s.47-12,16.72-25.28,169.42-168.44,169.42-168.44l14.15,21.93-166.88,159.18s-12.42,7.59-12.42,29.33,8.28,29.32,8.28,29.32l1.15,26-11.43,9.1Z" transform="translate(0 -3.98)"/><polygon class="cls-30" points="5084.41 1551.05 5324.77 1495.62 5346.01 1551.05 5084.41 1551.05"/><polygon class="cls-1" points="5117.91 1591.45 5110.26 1620.93 5135.47 1755.47 5150.78 1765.76 5186.15 1605.75 5117.91 1591.45"/><path class="cls-31" d="M5101.65,1596.58c-.36,12.09,0,24.18.62,36.26.62,11.91,1.33,23.84,2.52,35.72a264.16,264.16,0,0,0,5.93,36.68c2.78,11.39,6.27,22.62,10,33.75q6.22,18.73,13.68,37c1,2.52,2.16,4.56,4.6,6a10,10,0,0,0,13.68-3.59c1.17-2.21,2-5.27,1-7.7q-7.18-17.62-13.22-35.67c-4-12-7.84-24.18-10.77-36.52-1.68-7.09-2.95-14.27-3.94-21.5l.36,2.66c-1.43-10.63-2.25-21.32-2.93-32-.7-10.89-1.33-21.79-1.56-32.7q-.19-9.2.06-18.38c.16-5.23-4.71-10.24-10-10a10.2,10.2,0,0,0-10,10Z" transform="translate(0 -3.98)"/><polygon class="cls-32" points="5404.53 1759.79 5396.67 1708.19 5154.13 1769.38 5189.59 1838.31 5253.8 1915.69 5404.53 1759.79"/><path class="cls-33" d="M5250.26,1918.13c-12.73-13.39-25.65-26.62-37.9-40.45q-4.5-5.09-8.84-10.29c-1.41-1.72-2.81-3.44-4.19-5.18-.35-.43-.69-.87-1-1.31s-.68-1.19-1-1.31l.44.57c-.19-.26-.39-.51-.59-.77l-1.16-1.53c-5.51-7.32-10.71-14.87-15.88-22.42-5.67-8.28-11.33-16.56-15.28-25.83l.76,1.79a131.92,131.92,0,0,1-6.3-19.69c-1.64-6.69-2.48-14.28-7.83-19.23-2.89-2.66-7.8-3.07-10.61,0-2.66,2.9-3.08,7.76,0,10.61.28.25.53.53.8.8,1,.94-1.07-1.59-.17-.18a15.41,15.41,0,0,1,1.11,2.18l-.76-1.79a44.84,44.84,0,0,1,1.88,6.83c.62,2.73,1.26,5.45,2,8.15a124,124,0,0,0,5.25,15.88,111.42,111.42,0,0,0,8.32,16.19c3,4.78,6.21,9.4,9.4,14,6.8,9.92,13.74,19.74,21.28,29.11,7.16,8.91,14.8,17.42,22.59,25.78,9,9.62,18.09,19.12,27.15,28.66a7.58,7.58,0,0,0,10.61,0,7.66,7.66,0,0,0,0-10.61Z" transform="translate(0 -3.98)"/><path class="cls-33" d="M5144.3,1779.82a106.33,106.33,0,0,0,7.86,14.25l9.15,14.75c6.06,9.75,12,19.59,18.28,29.2s13.17,18.46,20.08,27.46q10.66,13.92,21.33,27.82a176.26,176.26,0,0,0,12.5,14.92c1.85,1.91,3.74,3.8,5.46,5.83l.5.62c.86,1-1-1.44-.2-.28.38.53.76,1.06,1.12,1.61a23.34,23.34,0,0,1,1.82,3.42l-.75-1.8a21.56,21.56,0,0,1,.77,2.22c1.08,3.77,5.34,6.49,9.22,5.24a7.63,7.63,0,0,0,5.24-9.23c-1.61-5.61-5.05-10.26-9-14.49-3.57-3.85-7.24-7.54-10.56-11.62q-1.26-1.54-2.49-3.12c-.44-.55-.86-1.12-1.3-1.67.09.12,1.08,1.41.31.41l-.86-1.12-5.38-7L5216.56,1863c-7.08-9.23-14.39-18.33-20.94-28s-12.5-19.57-18.62-29.43l-10.45-16.83c-3.34-5.39-6.81-10.73-9.3-16.58-.68-1.6-2.89-3-4.48-3.44a7.5,7.5,0,0,0-9.23,5.24,8.79,8.79,0,0,0,.76,5.78Z" transform="translate(0 -3.98)"/><path class="cls-33" d="M5158.12,1813.69c11.51,19.82,22.57,40,36.14,58.49q6,8.19,12.46,16a7.53,7.53,0,0,0,5.3,2.2,7.66,7.66,0,0,0,5.31-2.2,7.54,7.54,0,0,0,2.19-5.3,8.53,8.53,0,0,0-2.19-5.3c-1.8-2.19-3.58-4.4-5.32-6.63-.19-.25-.38-.5-.58-.74.1.11,1.08,1.4.31.39-.38-.5-.77-1-1.15-1.5-.85-1.12-1.7-2.26-2.54-3.39q-4.91-6.64-9.47-13.53c-6.22-9.38-11.84-19.13-17.49-28.85l-10-17.25c-2-3.4-6.86-4.89-10.26-2.7a7.65,7.65,0,0,0-2.69,10.27Z" transform="translate(0 -3.98)"/><circle class="cls-31" cx="5178.87" cy="1661.08" r="19.91"/><circle class="cls-5" cx="4148.39" cy="1188.25" r="40.67"/><rect class="cls-5" x="4004.26" y="1441.2" width="279.5" height="47.25" rx="9.76"/><rect class="cls-5" x="4041.87" y="1496.58" width="210.39" height="107.73"/><polygon class="cls-34" points="3913.27 2273.85 3885.81 2148.17 3928.8 1695.71 4051.99 1643.64 4274.6 1643.64 4356.21 1715.61 4388.86 1927.07 4403.65 2202.97 4351.76 2310.82 3995.4 2318.23 3913.27 2273.85"/><path class="cls-35" d="M4282.16,2323H4009.64c-78.51,0-129.93-65.95-129.93-144.47l37.85-435.81c0-78.51,90.35-103.25,168.86-103.25h149.07c78.52,0,136.26,53.94,136.26,132.45l33.53,409.86C4405.28,2260.25,4360.67,2323,4282.16,2323Z" transform="translate(0 -3.98)"/><rect class="cls-5" x="3946.67" y="2350.11" width="375.38" height="71.16" rx="13.81"/><path class="cls-36" d="M4249.77,2269.66H4044.53c-59.13,0-97.86-55.56-97.86-121.71l28.51-367.19c0-66.15,68.05-87,127.17-87h112.27c59.13,0,102.62,45.45,102.62,111.6l25.25,345.32C4342.49,2216.83,4308.9,2269.66,4249.77,2269.66Z" transform="translate(0 -3.98)"/><circle class="cls-27" cx="4142.02" cy="1975.85" r="71.27"/><path class="cls-27" d="M4230.87,1927.85c-2.48,1.55,20.56,24.32,15.1,53.62-2.51,13.48-9.85,21.85-6.77,37,.19.94,3.56,16.75,10.94,17.7,7.72,1,17.64-14.6,20.82-27.59C4280.67,1968.87,4234.34,1925.69,4230.87,1927.85Z" transform="translate(0 -3.98)"/><path class="cls-27" d="M4052.39,1923.26c2.47,1.58,13.05-29,41.84-36.77,13.24-3.56,24-.56,36.26-9.86.76-.58,13.57-10.44,11.25-17.51-2.44-7.4-20.79-9.61-33.88-6.86C4067.88,1860.64,4049,1921.07,4052.39,1923.26Z" transform="translate(0 -3.98)"/><path class="cls-27" d="M4132.66,2092c.39-2.91-31.84.4-51-22.45-8.8-10.51-10.6-21.5-24.22-28.73-.84-.45-15.19-7.91-20.61-2.82-5.69,5.32,0,22.9,8.05,33.62C4069.34,2104.28,4132.12,2096,4132.66,2092Z" transform="translate(0 -3.98)"/><circle class="cls-5" cx="4148.55" cy="1403.43" r="19.48"/><ellipse class="cls-5" cx="4144.4" cy="1272.33" rx="23.63" ry="21.4"/></g></svg>